<svg xmlns="http://www.w3.org/2000/svg" version="1.1" xmlns:xlink="http://www.w3.org/1999/xlink" xmlns:svgjs="http://svgjs.dev/svgjs" width="1440" height="560" preserveAspectRatio="none" viewBox="0 0 1440 560"><g mask="url(&quot;#SvgjsMask1033&quot;)" fill="none"><rect width="1440" height="560" x="0" y="0" fill="rgba(186, 187, 187, 1)"></rect><path d="M0,620.155C116.637,616.897,216.329,551.017,321.067,499.59C439.897,441.244,600.826,419.91,654.387,298.848C707.998,177.672,619.321,42.961,578.924,-83.237C544.914,-189.481,514.412,-298.303,437.397,-379.007C362.429,-457.566,259.29,-497.634,154.906,-527.563C51.074,-557.334,-55.259,-569.01,-161.727,-550.79C-278.215,-530.855,-416.104,-515.925,-482.879,-418.417C-549.77,-320.74,-496.635,-188.772,-490.612,-70.539C-485.777,24.379,-475.689,114.199,-451.069,205.996C-421.674,315.598,-416.391,441.109,-332.805,517.855C-245.549,597.971,-118.411,623.463,0,620.155" fill="#939494"></path><path d="M1440 1023.9680000000001C1543.204 1038.931 1660.775 1096.275 1746.2559999999999 1036.5430000000001 1832.225 976.47 1806.591 842.261 1841.547 743.38 1872.58 655.596 1953.204 580.277 1940.143 488.09000000000003 1927.078 395.878 1832.846 342.745 1774.5 270.154 1713.435 194.17899999999997 1676.555 94.995 1589.288 51.571000000000026 1495.688 4.995999999999981 1376.584-21.166000000000054 1283.096 25.633000000000038 1190.3 72.08600000000001 1186.267 203.03699999999998 1122.76 285.11 1064.286 360.678 956.1510000000001 395.299 926.713 486.2 895.916 581.3 914.879 690.2429999999999 963.229 777.734 1010.104 862.556 1099.847 910.8340000000001 1185.953 955.3050000000001 1265.504 996.39 1351.393 1011.121 1440 1023.9680000000001" fill="#e2e2e2"></path></g><defs><mask id="SvgjsMask1033"><rect width="1440" height="560" fill="#ffffff"></rect></mask></defs></svg>